# xmcd
# Copyright (C) 1995-1998 Ti Kan
#
# Track frame offsets:
#       150
#       18987
#       36504
#       55288
#       74304
#       90662
#       105438
#       119191
#       132851
#       151558
#       178337
#       189788
#
# Disc length: 2756 seconds
#
# Revision: 0
# Processed by: cddbd v1.5.2PL0 Copyright (c) Steve Scherf et al.
# Submitted via: CD-Import v1.0
#
DISCID=9e0ac20c
DTITLE=Kronzeugen - Der Schlafende Hund
DYEAR=2010
DGENRE=
TTITLE0=So Wahr Es War
TTITLE1=Eineinhalb Minuten
TTITLE2=Der Schlafende Hund
TTITLE3=Gott Und Die Welt
TTITLE4=Am Ende Einer Illusion
TTITLE5=Jahrelang
TTITLE6=Wohl
TTITLE7=Spiel
TTITLE8=Ich Sehe Was
TTITLE9=Mein Freund
TTITLE10=Ansichtsweisen
TTITLE11=Nun Kehrt Ruhe Ein
EXTD=
EXTT0=
EXTT1=
EXTT2=
EXTT3=
EXTT4=
EXTT5=
EXTT6=
EXTT7=
EXTT8=
EXTT9=
EXTT10=
EXTT11=
PLAYORDER=
